<svg width="743" height="242" viewBox="0 0 743 242" fill="none" xmlns="http://www.w3.org/2000/svg">
<path d="M552 5H673.76C674.019 5.23355 674.322 5.51046 674.668 5.83212C676.118 7.17772 678.165 9.14217 680.663 11.5767C685.649 16.4373 692.33 23.0736 699.409 30.1535C713.562 44.3088 729.25 60.1825 736.022 67.0449C737.296 68.3357 738 70.0578 738 71.9178V230C738 233.866 734.866 237 731 237H552C548.134 237 545 233.866 545 230V12C545 8.13401 548.134 5 552 5Z" fill="white" stroke="black" stroke-width="10"/>
<path d="M568 131L716 131" stroke="#0041D3" stroke-width="20" stroke-linecap="round"/>
<path d="M685 162L716 131" stroke="#0041D3" stroke-width="20" stroke-linecap="round"/>
<path d="M682 97L716 131" stroke="#0041D3" stroke-width="20" stroke-linecap="round"/>
<path d="M672 71H743L672 0V71Z" fill="black"/>
<path d="M51.4 59.8C58.7333 59.8 65.2667 61.6 71 65.2C76.7333 68.8 81.1333 73.8667 84.2 80.4C87.4 86.8 89 94.1333 89 102.4C89 114.8 85.6667 124.733 79 132.2C72.3333 139.667 63.6 143.4 52.8 143.4H37.8C37.1333 143.4 36.8 143.733 36.8 144.4V197.6C36.8 198.267 36.5333 198.867 36 199.4C35.6 199.8 35.0667 200 34.4 200H11C10.3333 200 9.73333 199.8 9.2 199.4C8.8 198.867 8.6 198.267 8.6 197.6V62.2C8.6 61.5333 8.8 61 9.2 60.6C9.73333 60.0667 10.3333 59.8 11 59.8H51.4ZM46.6 121.4C50.8667 121.4 54.2667 119.8 56.8 116.6C59.4667 113.267 60.8 108.733 60.8 103C60.8 97.1333 59.4667 92.5333 56.8 89.2C54.2667 85.8667 50.8667 84.2 46.6 84.2H37.8C37.1333 84.2 36.8 84.5333 36.8 85.2V120.4C36.8 121.067 37.1333 121.4 37.8 121.4H46.6ZM149.733 200C148.133 200 147.266 199.267 147.133 197.8L143.933 178.6C143.933 177.933 143.533 177.6 142.733 177.6H117.333C116.533 177.6 116.133 177.933 116.133 178.6L112.933 197.8C112.799 199.267 111.933 200 110.333 200H86.9328C85.1995 200 84.5328 199.133 84.9328 197.4L114.333 62.2C114.599 60.7333 115.466 60 116.933 60H143.933C145.399 60 146.266 60.7333 146.533 62.2L175.733 197.4L175.933 198.2C175.933 199.4 175.199 200 173.733 200H149.733ZM120.133 154.8C120.133 155.467 120.399 155.8 120.933 155.8H138.933C139.599 155.8 139.866 155.467 139.733 154.8L130.333 100.2C130.199 99.8 129.999 99.6 129.733 99.6C129.466 99.6 129.266 99.8 129.133 100.2L120.133 154.8ZM226.017 59.8C233.351 59.8 239.884 61.6 245.617 65.2C251.351 68.8 255.751 73.8667 258.817 80.4C262.017 86.8 263.617 94.1333 263.617 102.4C263.617 114.8 260.284 124.733 253.617 132.2C246.951 139.667 238.217 143.4 227.417 143.4H212.417C211.751 143.4 211.417 143.733 211.417 144.4V197.6C211.417 198.267 211.151 198.867 210.617 199.4C210.217 199.8 209.684 200 209.017 200H185.617C184.951 200 184.351 199.8 183.817 199.4C183.417 198.867 183.217 198.267 183.217 197.6V62.2C183.217 61.5333 183.417 61 183.817 60.6C184.351 60.0667 184.951 59.8 185.617 59.8H226.017ZM221.217 121.4C225.484 121.4 228.884 119.8 231.417 116.6C234.084 113.267 235.417 108.733 235.417 103C235.417 97.1333 234.084 92.5333 231.417 89.2C228.884 85.8667 225.484 84.2 221.217 84.2H212.417C211.751 84.2 211.417 84.5333 211.417 85.2V120.4C211.417 121.067 211.751 121.4 212.417 121.4H221.217ZM345.786 81.8C345.786 82.4667 345.519 83.0667 344.986 83.6C344.586 84 344.053 84.2 343.386 84.2H301.586C300.919 84.2 300.586 84.5333 300.586 85.2V116.8C300.586 117.467 300.919 117.8 301.586 117.8H325.586C326.253 117.8 326.786 118.067 327.186 118.6C327.719 119 327.986 119.533 327.986 120.2V139.6C327.986 140.267 327.719 140.867 327.186 141.4C326.786 141.8 326.253 142 325.586 142H301.586C300.919 142 300.586 142.333 300.586 143V174.8C300.586 175.467 300.919 175.8 301.586 175.8H343.386C344.053 175.8 344.586 176.067 344.986 176.6C345.519 177 345.786 177.533 345.786 178.2V197.6C345.786 198.267 345.519 198.867 344.986 199.4C344.586 199.8 344.053 200 343.386 200H274.786C274.119 200 273.519 199.8 272.986 199.4C272.586 198.867 272.386 198.267 272.386 197.6V62.4C272.386 61.7333 272.586 61.2 272.986 60.8C273.519 60.2667 274.119 60 274.786 60H343.386C344.053 60 344.586 60.2667 344.986 60.8C345.519 61.2 345.786 61.7333 345.786 62.4V81.8ZM411.281 200C409.815 200 408.881 199.333 408.481 198L393.081 142.8C392.815 142.267 392.481 142 392.081 142H385.281C384.615 142 384.281 142.333 384.281 143V197.6C384.281 198.267 384.015 198.867 383.481 199.4C383.081 199.8 382.548 200 381.881 200H358.481C357.815 200 357.215 199.8 356.681 199.4C356.281 198.867 356.081 198.267 356.081 197.6V62.4C356.081 61.7333 356.281 61.2 356.681 60.8C357.215 60.2667 357.815 60 358.481 60H398.881C406.215 60 412.748 61.8 418.481 65.4C424.215 68.8667 428.615 73.8 431.681 80.2C434.881 86.6 436.481 93.9333 436.481 102.2C436.481 110.067 434.948 117 431.881 123C428.948 129 424.815 133.667 419.481 137C419.215 137.133 419.015 137.333 418.881 137.6C418.748 137.733 418.748 137.933 418.881 138.2L437.281 197.2L437.481 198C437.481 199.333 436.748 200 435.281 200H411.281ZM385.281 84.2C384.615 84.2 384.281 84.5333 384.281 85.2V119.4C384.281 120.067 384.615 120.4 385.281 120.4H394.281C398.415 120.4 401.748 118.8 404.281 115.6C406.948 112.267 408.281 107.867 408.281 102.4C408.281 96.8 406.948 92.4 404.281 89.2C401.748 85.8667 398.415 84.2 394.281 84.2H385.281ZM482.808 201.6C475.074 201.6 468.274 200.067 462.408 197C456.541 193.933 452.008 189.667 448.808 184.2C445.608 178.6 444.008 172.2 444.008 165V159.2C444.008 158.533 444.208 158 444.608 157.6C445.141 157.067 445.741 156.8 446.408 156.8H469.408C470.074 156.8 470.608 157.067 471.008 157.6C471.541 158 471.808 158.533 471.808 159.2V163.6C471.808 167.733 472.874 171.067 475.008 173.6C477.141 176.133 479.808 177.4 483.008 177.4C486.208 177.4 488.874 176.2 491.008 173.8C493.141 171.4 494.208 168.267 494.208 164.4C494.208 160.4 492.874 157 490.208 154.2C487.541 151.267 482.341 147 474.608 141.4C467.941 136.6 462.541 132.333 458.408 128.6C454.274 124.867 450.741 120.267 447.808 114.8C444.874 109.333 443.408 103 443.408 95.8C443.408 84.4667 446.941 75.4 454.008 68.6C461.074 61.8 470.408 58.4 482.008 58.4C493.741 58.4 503.141 61.9333 510.208 69C517.408 76.0667 521.008 85.3333 521.008 96.8V101.6C521.008 102.267 520.741 102.867 520.208 103.4C519.808 103.8 519.274 104 518.608 104H495.608C494.941 104 494.341 103.8 493.808 103.4C493.408 102.867 493.208 102.267 493.208 101.6V96.2C493.208 92.0667 492.141 88.8 490.008 86.4C488.008 83.8667 485.341 82.6 482.008 82.6C478.808 82.6 476.208 83.8 474.208 86.2C472.208 88.4667 471.208 91.6667 471.208 95.8C471.208 99.8 472.474 103.333 475.008 106.4C477.541 109.467 482.541 113.733 490.008 119.2C498.274 125.333 504.474 130.333 508.608 134.2C512.874 137.933 516.141 142.133 518.408 146.8C520.808 151.333 522.008 156.8 522.008 163.2C522.008 174.933 518.408 184.267 511.208 191.2C504.008 198.133 494.541 201.6 482.808 201.6Z" fill="#0041D3"/>
</svg>
